<svg xmlns="http://www.w3.org/2000/svg" height="581.68" width="602.533"  xmlns:v="https://vecta.io/nano"><style><![CDATA[.B{fill:#1d2a30}.C{fill:#365462}.D{fill:#e3e3e2}.E{fill:#f6865e}.F{fill:#fcfdfd}.G{fill:#f03658}.H{fill:#f9ad95}]]></style><path d="M586.192 191.664H443.848V43.28h142.344v148.384" class="D"/><path d="M576.552 191.664H434.207V43.28h142.345v148.384" class="F"/><path d="M434.25 191.62h142.258V43.325H434.251zm142.346.088H434.163V43.236h142.433v148.472" class="D"/><path d="M557.417 171.716H453.343V63.228h104.074v108.488" class="F"/><g class="D"><path d="M453.343 172.437c.081.099-.907 1.234-2.568 2.987a292.842 292.842 0 0 1-6.616 6.707l-6.8 6.508-3.007 2.505c-.09-.09.89-1.219 2.555-2.973a288.32 288.32 0 0 1 6.629-6.72l6.812-6.52 2.995-2.494m104.074-.265c.098-.083 1.232.905 2.987 2.568l6.707 6.616 6.508 6.799 2.505 3.008c-.09.089-1.219-.892-2.975-2.555l-6.72-6.63a291.865 291.865 0 0 1-6.52-6.813l-2.492-2.993m-.285-108.655c-.081-.097.907-1.232 2.568-2.986a292.842 292.842 0 0 1 6.616-6.707l6.8-6.508 3.008-2.505c.09.09-.892 1.218-2.555 2.973l-6.63 6.72-6.812 6.52-2.995 2.493m-104.075.267c-.096.081-1.232-.907-2.985-2.57l-6.708-6.615-6.508-6.799-2.504-3.008c.09-.09 1.219.892 2.973 2.555l6.72 6.63a289.09 289.09 0 0 1 6.52 6.812l2.492 2.995"/><path d="M557.132 171.717a5.543 5.543 0 0 1-.023-.528l-.022-1.513-.047-5.857-.105-22.111-.204-78.48.401.401-103.789.059.46-.46-.064 108.488-.396-.395 101.845.351 1.443.023.501.022s-.147.015-.457.022l-1.402.022-5.509.046-21.02.102-75.797.204-.066-109.346h.472l104.182.06-.002.401-.202 78.737-.152 27.799-.024 1.47-.023.483m-48.704-65.918c-3.7-5.558-10.57-8.834-17.216-8.212s-12.79 5.114-15.396 11.261c-2.193 5.176-1.907 11.232.26 16.419s6.104 9.525 10.75 12.689c12.167 8.287 29.817 7.915 41.125-1.512 4.2-3.503 7.57-8.281 8.345-13.693.892-6.256-2.03-12.904-7.243-16.476s-12.468-3.894-17.977-.8"/></g><g fill="#eee"><path d="M508.472 105.773c-.715-2.965-3.855-5.132-6.881-4.746l4.072 4.85c-2.21.278-4.208 1.846-5.006 3.924-.192.5-.248 1.195.226 1.444.312.166.693.03 1.021-.105l4.947-2.053a17.026 17.026 0 0 0 2.948 7.68 20.158 20.158 0 0 0 1.866-7.727l5.467 2.423a8.172 8.172 0 0 0-2.57-4.048 13.582 13.582 0 0 0 4.571-1.784c.423-.26.887-.712.695-1.17-.147-.352-.592-.449-.973-.486a18.027 18.027 0 0 0-10.423 2.165"/><path d="M508.113 107.816a35.587 35.587 0 00-1.36-16.501c1.303-.291 2.908-.486 3.751.549.488.599.543 1.43.552 2.204a38.633 38.633 0 01-2.921 15.219"/></g><path d="M481.568 127.63c-.027.025-.347-.263-.855-.855s-1.174-1.511-1.828-2.75a17.24 17.24 0 0 1-1.738-10.645c.713-4.276 3.042-7.633 5.073-9.52 1.019-.961 1.944-1.62 2.616-2.015s1.068-.565 1.084-.534c.067.101-1.484.892-3.401 2.85-1.908 1.92-4.094 5.199-4.779 9.316-.676 4.119.336 7.927 1.524 10.36 1.185 2.471 2.4 3.719 2.304 3.794m5.487 4.148c-.054.15-.92-.036-1.79-.66s-1.329-1.379-1.202-1.479c.129-.11.748.423 1.552.99.797.577 1.502.989 1.44 1.149" fill="#fff"/><path d="M264.85 206.717H66.596V.056h198.252v206.661" class="D"/><path d="M251.424 206.717H53.171V.056h198.253v206.661" class="F"/><path d="M53.232 206.656h198.13V.117H53.231zm198.252.123H53.11V-.005h198.374v206.784" class="D"/><path d="M224.772 178.936H79.822V27.837h144.95v151.099" class="F"/><g class="D"><path d="M79.822 179.94c.114.136-1.262 1.716-3.577 4.159s-5.568 5.749-9.214 9.341l-9.47 9.065-4.19 3.488s1.244-1.697 3.559-4.141 5.576-5.757 9.235-9.359l9.487-9.081 4.17-3.472m144.95-.37c.136-.115 1.717 1.262 4.16 3.577s5.75 5.568 9.34 9.214l9.065 9.47 3.49 4.189s-1.699-1.243-4.142-3.559-5.757-5.576-9.36-9.233l-9.081-9.488-3.472-4.17m-.396-151.33c-.113-.136 1.263-1.716 3.577-4.159s5.568-5.749 9.214-9.341 6.998-6.792 9.47-9.064 4.064-3.615 4.19-3.49-1.244 1.7-3.558 4.142-5.577 5.757-9.236 9.36l-9.486 9.08-4.171 3.472m-144.951.37c-.135.115-1.716-1.26-4.159-3.575s-5.748-5.568-9.34-9.215-6.793-6.999-9.065-9.47-3.615-4.065-3.489-4.189 1.698 1.243 4.142 3.558 5.756 5.577 9.359 9.234l9.08 9.488 3.472 4.17"/><path d="M224.376 178.936c-.01-.01-.021-.259-.03-.733l-.033-2.11-.065-8.157-.147-30.795-.284-109.304.559.559-144.554.083.642-.642-.091 151.099-.55-.55 141.844.489 2.009.03.7.031s-.204.02-.639.03l-1.95.031-7.672.064-29.276.144-105.567.283-.001-.552-.091-151.74h.656l145.101.083-.285 110.22-.213 38.717-.031 2.048-.032.672"/></g><path d="M151.675 56.287c-.495 1.67-8.987 15.048-21.228 19.601s-21.35 9.579-17.95 15.577 18.442 2.727 18.442 2.727-30.514 33.173-1.788 52.128c35.034 23.117 71.642-59.628 71.642-59.628l-49.118-30.405" fill="#eee"/><g class="D"><path d="M195.028 98.048c-.096.156-11.645-6.727-25.793-15.37l-25.451-15.94c.096-.157 11.643 6.725 25.796 15.373l25.448 15.937m-5.424 9.922c-.095.157-12.57-7.165-27.863-16.351l-27.522-16.922c.094-.157 12.568 7.163 27.864 16.352l27.521 16.92m-6.547 9.404c-.094.156-14.102-8.086-31.285-18.408l-30.947-18.978c.095-.158 14.1 8.084 31.288 18.409l30.944 18.977m-8.172 11.634c-.097.156-10.953-6.466-24.246-14.787l-23.897-15.352c.098-.155 10.951 6.465 24.249 14.79l23.894 15.349m-9.602 11.236c-.102.153-10.211-6.371-22.578-14.568l-22.213-15.122c.1-.152 10.209 6.37 22.58 14.57l22.21 15.12m-12.259 7.794c-.023.04-.566-.218-1.531-.72s-2.345-1.252-4.039-2.206a276.727 276.727 0 0 1-12.998-7.848c-4.994-3.203-9.412-6.256-12.559-8.538a135.43 135.43 0 0 1-3.691-2.748c-.858-.666-1.32-1.053-1.293-1.09s.54.278 1.444.881l3.81 2.573a586.516 586.516 0 0 0 12.647 8.363 581.418 581.418 0 0 0 12.878 8.001l3.929 2.388c.924.57 1.425.904 1.403.944m-28.73-53.09c-.05.158-3.277-.866-6.77-3.103-3.505-2.22-5.798-4.71-5.676-4.823.137-.146 2.594 2.087 6.032 4.263 3.425 2.196 6.489 3.477 6.414 3.663"/><path d="M198.519 84.967c.017.013-.134.258-.439.717l-1.363 1.981a409.178 409.178 0 0 1-5.15 7.188c-4.399 6.034-10.606 14.276-17.69 23.2-7.09 8.924-13.714 16.836-18.594 22.487a408.29 408.29 0 0 1-5.836 6.644l-1.622 1.775c-.376.401-.582.605-.6.589s.156-.248.499-.677l1.528-1.856 5.672-6.779a1180.882 1180.882 0 0 0 18.433-22.596l17.834-23.067 5.318-7.06 1.462-1.908c.341-.432.528-.653.548-.638m-9.932-7.079c.145.112-12.023 15.99-27.175 35.461l-27.701 35.059c-.144-.112 12.021-15.988 27.177-35.467l27.699-35.053m-13.852-7.851c.02.011-.118.282-.396.788l-1.246 2.195a190.973 190.973 0 0 1-4.885 7.897c-4.252 6.59-10.576 15.402-18.032 24.756-7.45 9.367-14.495 17.59-19.58 23.551l-6.057 7.03-1.672 1.889c-.388.426-.6.644-.619.629s.161-.261.516-.716l1.578-1.97 5.896-7.163 19.418-23.662c7.447-9.342 13.816-18.09 18.16-24.602a317.31 317.31 0 0 0 5.056-7.772l1.352-2.131c.316-.483.49-.73.51-.719m-11.366-6.512c.145.112-10.225 13.84-23.16 30.66l-23.69 30.259c-.145-.112 10.224-13.837 23.163-30.664l23.687-30.255m-8.551-5.568c.039.026-.352.676-1.09 1.832a29.65 29.65 0 0 1-1.41 2.068c-.577.786-1.206 1.706-1.994 2.648-1.514 1.938-3.467 4.126-5.768 6.423a79.625 79.625 0 0 1-8.047 6.859 79.671 79.671 0 0 1-8.954 5.629c-2.881 1.51-5.553 2.72-7.854 3.583-1.136.472-2.201.796-3.123 1.112a30.33 30.33 0 0 1-2.394.726c-1.325.359-2.062.538-2.075.492s.702-.304 1.999-.74c.65-.209 1.444-.473 2.348-.828.906-.349 1.954-.702 3.071-1.198 2.265-.914 4.896-2.159 7.738-3.686a85.302 85.302 0 0 0 8.85-5.625 85.362 85.362 0 0 0 8.014-6.763c2.307-2.254 4.281-4.393 5.83-6.281.809-.917 1.458-1.812 2.06-2.572.61-.757 1.1-1.435 1.495-1.992.803-1.11 1.266-1.712 1.304-1.687m-37.487 399.93c-.576.129 3.722 21.758 3.722 21.758h11.021l4.867-20.9s-8.159-3.434-19.61-.858"/></g><path d="M110.695 579.63s-16.217-45.407-13.947-57.731 7.135-14.92 11.028-18.812 7.134-7.136 8.108-11.028 0-19.46 0-19.46-2.92-4.54-1.946-6.163 24.973 0 24.973 0 0 2.596-1.946 5.515c0 0-.648 18.162.326 20.108s15.892 18.488 18.161 26.921-8.956 60.65-8.956 60.65h-35.801" fill="#f8f8f9"/><path d="M110.695 579.63l.631-.026 1.826-.027 7.043-.056 26.301-.114-.217.176a960.048 960.048 0 0 0 4.393-22.318c1.49-8.233 3.101-17.213 4.207-26.846.257-2.41.488-4.863.541-7.344.024-1.235.015-2.5-.22-3.688-.281-1.187-.772-2.358-1.316-3.503-2.284-4.552-5.41-8.823-8.653-13.094-1.631-2.134-3.332-4.253-5.051-6.391l-2.57-3.26a9.823 9.823 0 0 1-.617-.908 4.49 4.49 0 0 1-.273-1.112c-.108-.715-.152-1.414-.19-2.117-.245-5.615-.077-11.297.089-17.063l.002-.095.056-.085c.251-.393.518-.824.74-1.278.636-1.266 1.078-2.685 1.147-4.044l.324.346c-5.473-.348-10.881-.624-16.174-.708-2.632-.009-5.3-.086-7.783.307-.274.045-.652.178-.686.229-.096.148-.175.433-.158.712.01.57.186 1.177.395 1.757.434 1.164 1.037 2.288 1.685 3.337l.048.078.005.083c.238 4.149.403 8.227.422 12.242-.002 2.008-.015 3.996-.229 5.981-.18 2.03-1.078 3.9-2.166 5.508-1.1 1.618-2.39 3.047-3.696 4.407-1.316 1.353-2.613 2.683-3.978 3.933-1.359 1.24-2.691 2.45-3.833 3.799a20.65 20.65 0 0 0-2.857 4.36c-1.501 3.096-2.392 6.388-2.92 9.584-.22 1.586-.18 3.198-.056 4.764.107 1.572.323 3.11.54 4.617.96 6.024 2.346 11.516 3.644 16.483 2.656 9.924 5.175 17.737 6.901 23.101a9950.233 9950.233 0 0 0 2.542 7.728 6.91 6.91 0 0 1 .16.544s-.086-.177-.217-.525l-.579-1.568-2.127-6.105c-1.796-5.343-4.38-13.14-7.096-23.063-1.329-4.968-2.746-10.46-3.735-16.515-.226-1.517-.45-3.065-.564-4.656-.131-1.588-.18-3.222.042-4.885.528-3.261 1.413-6.58 2.942-9.763a21.236 21.236 0 0 1 2.922-4.486c1.17-1.39 2.528-2.627 3.877-3.863 1.34-1.235 2.637-2.57 3.94-3.916 1.293-1.353 2.558-2.763 3.62-4.33 1.05-1.562 1.886-3.325 2.05-5.229.205-1.923.216-3.909.215-5.904-.025-3.993-.195-8.068-.437-12.2l.053.16c-.68-1.098-1.29-2.23-1.755-3.467-.221-.62-.422-1.267-.438-1.989-.006-.36.041-.742.297-1.128.435-.41.747-.378 1.09-.484 2.65-.417 5.265-.329 7.93-.326 5.315.082 10.724.356 16.21.705l.34.02-.015.325c-.08 1.56-.547 2.996-1.222 4.357-.236.48-.516.935-.782 1.35l.057-.18c-.165 5.747-.333 11.444-.095 17 .036.69.082 1.388.183 2.05.036.351.117.634.207.907.17.266.338.534.556.81.818 1.096 1.696 2.168 2.55 3.24l5.054 6.409c3.252 4.292 6.384 8.575 8.706 13.22.555 1.175 1.059 2.372 1.36 3.65.254 1.303.251 2.577.228 3.837-.06 2.518-.296 4.981-.561 7.4-1.13 9.665-2.768 18.642-4.29 26.88a883.605 883.605 0 0 1-4.495 22.309l-.039.177-.18-.001-33.412-.17-1.794-.028c-.4-.006-.595-.025-.595-.025m32.69-4.706c3.711-13.06 7.007-31.479 8.142-46.357.136-1.79.136-3.857-1.215-5.037-1.652-1.445-4.183-.673-6.273-.005a37.869 37.869 0 0 1-19.028 1.01c-6.148-1.266-12.242-4.08-18.435-3.056-1.555.258-3.184.84-4.065 2.149-1.005 1.49-.761 3.462-.478 5.237 2.432 15.241 7.406 32.768 11.45 46.059h29.902" class="D"/><path d="M147.46 525.399c.03.029-.37.498-1.17 1.27s-2.029 1.823-3.67 2.954c-3.255 2.267-8.372 4.73-14.455 5.494s-11.654-.356-15.368-1.748c-1.872-.689-3.322-1.401-4.287-1.953s-1.468-.905-1.447-.941c.063-.122 2.161 1.185 5.894 2.432 3.705 1.253 9.166 2.27 15.121 1.52a34.74 34.74 0 0 0 14.271-5.214c3.31-2.13 5.019-3.916 5.111-3.814" fill="#fff"/><path d="M417.899 279.156c0 .192-2.796.348-6.246.348s-6.244-.156-6.244-.348 2.795-.347 6.244-.347 6.246.156 6.246.347" class="F"/><path d="M602.527 581.332c0 .192-134.892.348-301.25.348C134.861 581.68 0 581.524 0 581.332s134.861-.347 301.277-.347l301.25.347" class="B"/><path d="M482.037 506.061c6.499-4.673 13.103-9.404 20.626-12.138s16.214-3.267 23.332.397c5.965 3.074 10.248 8.803 12.72 15.041a39.43 39.43 0 0 1 1.469 24.327c-1.14 4.34-3.385 8.841-7.516 10.593-4.143 1.755-8.9.247-13.004-1.593a85.34 85.34 0 0 1-33.873-27.433c1.605-1.56 4.258-1.508 6.285-.558s3.61 2.616 5.268 4.12a43.171 43.171 0 0 0 18.324 9.844c5.037 1.279 11.821.726 13.51-4.189 1.106-3.213-.651-6.643-2.351-9.585-1.947-3.372-4.176-6.99-7.832-8.331-2.743-1.005-5.778-.523-8.655-.028l-31.433 5.401 1.946-.58" class="C"/><path d="M403.54 82.005c-20.73-5.786-51.447 2.271-63.18 20.314s-6.559 44.802-7.479 66.304-.072 43.326-5.218 64.222c-3.276 13.298-9.563 26.71-21.112 34.068-13.19 8.403-32.982 9.231-39.228 23.568-5.218 11.971 2.87 26.668-2.387 38.622-2.33 5.293-7.03 9.321-9.057 14.734-2.804 7.49.266 16.211 5.769 22.012s13.041 9.198 20.548 11.955a183.409 183.409 0 0 0 71.513 11.004c17.692-.825 36.667-5.01 48.272-18.39 9.112-10.505 12.112-24.9 13.762-38.711C425.897 246.61 427.7 153.096 403.54 82.005" class="B"/><path d="M287.963 340.27c.169-.085-.784-1.697-1.724-4.874-.95-3.16-1.618-7.996-.782-13.845.832-5.831 3.254-12.598 7.504-19.146 4.255-6.557 10.41-12.721 17.17-18.788 6.78-6.074 13.492-11.676 18.916-17.536 5.428-5.838 9.536-11.845 12.085-17.337 2.55-5.497 3.579-10.368 3.808-13.73.1-1.687.123-2.994.03-3.88-.055-.885-.111-1.345-.167-1.342-.412-.103.666 7.733-4.699 18.457-2.623 5.307-6.739 11.123-12.141 16.815-5.392 5.71-12.095 11.25-18.911 17.353-6.799 6.106-13.03 12.391-17.341 19.183-4.298 6.775-6.674 13.773-7.384 19.801-.718 6.044.157 11.016 1.313 14.186.599 1.585 1.121 2.784 1.595 3.542.43.776.678 1.167.728 1.14" class="C"/><path d="M340.077 492.697l-6.937 87.138 208.31 1.02-56.63-79.623-144.743-8.535" class="B"/><path d="M175.395 283.123c.59.506-12.2 68.744-18.646 102.897a31.063 31.063 0 0011.919 30.633 31.068 31.068 0 0033.77 2.248l86.726-45.137-26.564-55.583-54.69 31.03 3.589-57.854-36.104-8.234" class="H"/><path d="M205.013 228.879c-.622-2.446-3.7-3.556-6.146-2.939s-4.378 2.444-6.19 4.201l-7.017 4.255c-2.744 1.573-4.175 4.83-4.376 7.988s.635 6.277 1.463 9.33c.724 2.665 1.764 5.695 4.349 6.663 2.857 1.072 6.032-1.148 7.383-3.885s1.481-5.89 2.185-8.86a23.19 23.19 0 0 1 4.913-9.668c1.783-2.083 4.114-4.43 3.436-7.085" class="E"/><path d="M146.737 231.593a4.36 4.36 0 0 1 4.506-5.656c14.233 1.17 48.062 5.906 68.129 11.68l47.187 13.486 60.424-1.35s-7.255 20.826-30.284 20.936c-17.426.083-35.699-11.125-35.699-11.125s-77.443-26.37-109.964-24.941a4.307 4.307 0 0 1-4.299-3.03" class="C"/><path d="M315.695 249.97c.74 2.11-1.722 3.983-3.919 4.394s-4.725.299-6.31 1.875c-1.246 1.236-1.493 3.168-1.33 4.916s.659 3.466.617 5.221c-.026 1.18-.334 2.415-1.162 3.257-1.583 1.612-4.496 1.07-6.034-.589s-2-4.032-2.177-6.285c-.128-1.611-.15-3.262-.705-4.78s-1.792-2.915-3.395-3.118c-1.916-.244-3.585 1.204-5.41 1.835-3.818 1.317-8.467-1.772-8.73-5.803l38.555-.922" class="G"/><path d="M168.521 228.301s-1.078.628-2.938 1.394-4.526 1.61-7.564 2.066c-3.042.45-5.839.419-7.839.227s-3.216-.475-3.216-.475l.864.114 2.36.264c1.996.165 4.781.181 7.81-.267a35.013 35.013 0 0 0 7.549-2.021 32.04 32.04 0 0 0 2.18-.94l.794-.362m26.507 3.826c-.003.009-.09.005-.256-.01l-.724-.08a39.817 39.817 0 0 0-2.66-.234 40.09 40.09 0 0 0-8.775.462 40.028 40.028 0 0 0-8.453 2.402 39.112 39.112 0 0 0-2.443 1.081l-.658.31c-.152.069-.234.1-.239.091s.068-.056.212-.14l.636-.357c.552-.31 1.377-.715 2.415-1.168 2.074-.91 5.065-1.92 8.485-2.493 3.42-.564 6.576-.574 8.833-.384l2.663.322.717.134c.163.032.248.054.247.064m19.809 10.036l-2.782-.822-3.259-.982c-.623-.203-1.343-.444-1.839-1.055a1.228 1.228 0 0 1-.2-1.137c.12-.407.499-.69.891-.832.804-.302 1.73-.24 2.613-.04a34.17 34.17 0 0 1 2.771.649 34.306 34.306 0 0 1 5.856 2.248l2.967 1.656c.477.313 1.025.59 1.37 1.113.172.254.242.608.11.908s-.403.498-.674.635c-2.25.927-4.817 1.13-7.35.81-5.124-.65-9.466-3.122-13.35-5.154-3.884-2.083-7.537-3.759-10.84-4.325-3.285-.615-6.045-.29-7.809.294a12.31 12.31 0 0 0-1.981.819l-.659.357.645-.382c.431-.235 1.088-.552 1.979-.844 1.767-.603 4.54-.947 7.843-.34 3.321.556 6.993 2.232 10.882 4.308 3.888 2.026 8.219 4.485 13.307 5.13 2.51.32 5.067.11 7.272-.794.259-.13.503-.311.61-.567s.058-.55-.098-.783c-.313-.48-.85-.76-1.328-1.073a33.687 33.687 0 0 0-2.953-1.653 34.47 34.47 0 0 0-5.831-2.252 34.46 34.46 0 0 0-2.759-.656c-.882-.2-1.78-.259-2.557.028-.38.136-.728.398-.839.769a1.14 1.14 0 0 0 .183 1.056c.465.58 1.175.83 1.79 1.032l3.253 1.005 2.766.874m14.059-1.178s.295.443.468 1.274a5.193 5.193 0 0 1-.387 3.225 5.194 5.194 0 0 1-2.262 2.33c-.755.389-1.284.438-1.284.438-.01-.03.509-.121 1.236-.524a5.303 5.303 0 0 0 2.185-2.304 5.306 5.306 0 0 0 .416-3.148c-.144-.819-.401-1.279-.372-1.29m24.529 6.384s-1.309.013-3.418-.131c-2.108-.124-5.014-.452-8.234-.491-3.217-.055-6.137.428-8.069 1.283-.496.18-.912.412-1.279.616-.376.186-.68.377-.914.557l-.762.512s.255-.205.731-.556c.232-.188.533-.387.908-.581.364-.211.78-.451 1.277-.639 1.938-.884 4.882-1.385 8.11-1.33 3.23.038 6.134.38 8.24.531l2.494.168a24.18 24.18 0 0 1 .916.062m25.587 20.116l-1.341-1.184a25.55 25.55 0 0 0-1.594-1.363c-.637-.51-1.34-1.124-2.181-1.715-1.637-1.246-3.685-2.597-6.04-3.957a63.663 63.663 0 0 0-7.99-3.78 63.879 63.879 0 0 0-8.47-2.528c-2.661-.561-5.088-.925-7.139-1.092-1.021-.123-1.953-.137-2.769-.184a26.833 26.833 0 0 0-2.095-.05c-1.15 0-1.789-.015-1.789-.015s.637-.024 1.79-.04c.574-.015 1.28-.019 2.098.028.816.04 1.75.046 2.775.162 2.054.155 4.488.51 7.156 1.066 2.66.593 5.549 1.41 8.493 2.524a62.602 62.602 0 0 1 8.003 3.798c2.356 1.37 4.404 2.731 6.036 3.99.84.597 1.538 1.217 2.173 1.733s1.161.985 1.58 1.381l1.304 1.226m17.473.457s-.44.256-1.312.539c-.866.285-2.189.541-3.828.468-1.633-.079-3.572-.512-5.533-1.432-1.967-.915-3.91-2.328-5.761-3.995-1.85-1.673-3.463-3.417-4.964-4.964s-2.894-2.901-4.144-3.945-2.34-1.791-3.122-2.259c-.39-.235-.697-.41-.91-.523s-.318-.182-.318-.182 1.89.794 4.414 2.888c1.262 1.037 2.669 2.384 4.172 3.932 1.508 1.542 3.121 3.282 4.965 4.95 1.844 1.66 3.775 3.068 5.723 3.982s3.864 1.358 5.484 1.449c1.625.085 2.94-.152 3.806-.42a9.85 9.85 0 0 0 .986-.356c.221-.09.342-.132.342-.132m22.905-6.416c-.002.01-.167.003-.467-.017s-.731-.04-1.264-.046a19.382 19.382 0 0 0-4.14.422 19.328 19.328 0 0 0-3.95 1.314c-.486.224-.873.418-1.134.56s-.414.215-.418.207c0 0 .544-.383 1.51-.855a17.622 17.622 0 0 1 3.962-1.361 17.627 17.627 0 0 1 4.171-.384c1.075.033 1.73.16 1.73.16" class="B"/><path d="M152.997 266.863l-.642-12.468a6.209 6.209 0 0 1 1.052-3.787l.08-.117a27.162 27.162 0 0 1 8.217-7.91l26.865-16.653c1.711-1.06 4.016-.084 4.328 1.905.346 2.204-.63 7.211-2.58 9.207-3.905 3.996-11.286 8.24-11.286 8.24l26.957-5.225s2.345 5.969-3.533 9.381l11.08-2.35s3.616 5.154-1.324 8.557-13.776 6.349-13.776 6.349 13.754 5.796 13.426 10.432-.506 19.445-.506 19.445l-36.932-2.716-21.426-22.29" class="H"/><path d="M180.01 244.467c.005.009-.085.061-.26.153l-.766.39-2.808 1.453c-1.173.634-2.517 1.477-3.99 2.454l-4.753 3.202c-.777.636-1.437 1.385-1.813 2.246-.381.858-.495 1.782-.48 2.648.047 1.751.547 3.279.885 4.568.36 1.288.567 2.362.619 3.112s-.013 1.166-.013 1.166c-.027-.002-.008-.416-.095-1.155s-.316-1.79-.699-3.07c-.362-1.278-.89-2.814-.952-4.614-.024-.893.086-1.859.487-2.765.395-.912 1.087-1.699 1.884-2.351.797-.659 1.656-1.177 2.461-1.699l2.33-1.502 4.036-2.414a56.762 56.762 0 0 1 2.854-1.377l.791-.343c.181-.076.279-.112.283-.102m2.508 27.993s-.122-.136-.33-.41l-.922-1.19-1.475-1.873c-.556-.744-1.207-1.596-1.688-2.684-.953-2.158-.593-5.456 1.69-7.698 1.135-1.104 2.633-1.837 4.151-2.546a99.599 99.599 0 0 1 4.776-2.095c6.631-2.687 12.878-4.436 17.416-5.564 2.271-.565 4.122-.964 5.402-1.237l1.477-.295c.339-.065.519-.084.519-.084s-.172.056-.507.139l-1.467.345-5.376 1.323c-4.522 1.174-10.748 2.95-17.358 5.63-1.65.676-3.247 1.368-4.766 2.084-1.52.704-2.99 1.424-4.09 2.484-2.21 2.144-2.587 5.35-1.686 7.436.456 1.062 1.09 1.92 1.631 2.668l1.436 1.902a37.56 37.56 0 0 1 .883 1.222c.194.284.284.443.284.443m28.585-16.559c.008.019-.21.15-.612.371l-1.719.912a94.322 94.322 0 0 1-5.792 2.772 58.342 58.342 0 0 1-6.028 2.221c-.786.238-1.426.418-1.873.528s-.695.167-.699.148.232-.106.668-.252l1.844-.61a79.47 79.47 0 0 0 5.979-2.29c2.295-.993 4.333-1.985 5.813-2.693l1.758-.833c.417-.192.652-.29.661-.274" class="E"/><path d="M290.37 196.43c.037.023-.457.618-1.06 1.857a13.082 13.082 0 0 0-1.215 5.634c.017 2.431.766 5.436 2.89 7.911 1.051 1.235 2.35 2.355 3.632 3.592 1.264 1.235 2.582 2.632 3.246 4.457s.489 3.806-.158 5.476c-.649 1.684-1.637 3.126-2.649 4.411-1.019 1.285-2.105 2.407-3.07 3.483s-1.81 2.133-2.482 3.162c-1.37 2.046-1.979 4.004-2.007 5.376-.046 1.375.235 2.114.186 2.12l-.146-.536a6.086 6.086 0 0 1-.148-1.588c-.005-1.394.587-3.4 1.95-5.478.669-1.047 1.514-2.115 2.473-3.21l3.044-3.488c.997-1.278 1.965-2.704 2.595-4.348.625-1.632.789-3.534.15-5.285s-1.918-3.128-3.173-4.357l-3.637-3.622c-2.16-2.538-2.902-5.609-2.892-8.074.01-2.5.7-4.452 1.314-5.684.639-1.235 1.158-1.81 1.158-1.81m12.232-.63c.036.024-.458.62-1.06 1.857a13.087 13.087 0 0 0-1.216 5.635c.017 2.432.766 5.436 2.89 7.91 1.051 1.236 2.35 2.355 3.632 3.592 1.264 1.235 2.582 2.634 3.246 4.458s.488 3.805-.158 5.476c-.649 1.684-1.637 3.125-2.648 4.412-1.02 1.284-2.105 2.405-3.072 3.481s-1.809 2.135-2.481 3.164c-1.37 2.044-1.977 4.003-2.007 5.375-.046 1.374.235 2.113.184 2.121l-.142-.537a6.075 6.075 0 0 1-.15-1.588c-.005-1.395.588-3.399 1.951-5.479.668-1.047 1.512-2.115 2.472-3.21l3.044-3.486c.997-1.279 1.965-2.705 2.595-4.35.625-1.631.789-3.534.15-5.285s-1.918-3.128-3.173-4.357l-3.637-3.621c-2.16-2.539-2.9-5.61-2.892-8.075.009-2.5.698-4.45 1.314-5.684.639-1.235 1.158-1.81 1.158-1.81" class="B"/><path d="M206.807 392.259c-.076-.004.31-10.092.866-22.528l1.144-22.516c.076.002-.312 10.088-.866 22.529l-1.144 22.515m-23.186-95.135c-.056.053-1.717-1.635-3.712-3.767s-3.565-3.906-3.509-3.958 1.719 1.634 3.712 3.768 3.565 3.905 3.51 3.957" class="E"/><path d="M339.277 489.848l-10.85 91.006h151.477l-25.236-64.725 34.73-8.237s-2.334-6.527-4.578-6.66-145.543-11.384-145.543-11.384" class="C"/><g fill="#552fbc"><path d="M261.492 315.863s58.752-38.051 74.215-43.24c9.505-3.19 38.05-3.702 38.05-3.702l-53.513 91.45-30.41 14.793-28.342-59.301"/><path d="M556.039 379.81c-17.943-43.34-46.995-92.291-55.592-100.69s-61.319-15.152-61.319-15.152l-69.143 7.503-55.437 75.944 24.27 118.52-.825 1.584a21.821 21.821 0 0 0 1.284 22.33l145.543 11.383.188-112.23 71.03-9.191"/></g><path d="M464.961 443.325c.019.016-.228.344-.716.959l-2.189 2.637c-1.944 2.255-4.944 5.371-9.005 8.826-4.054 3.458-9.252 7.169-15.471 10.506-6.21 3.34-13.476 6.227-21.401 8.12-7.943 1.832-15.739 2.483-22.787 2.252-7.056-.221-13.363-1.23-18.532-2.525-5.175-1.287-9.247-2.741-11.99-3.898-1.389-.538-2.418-1.07-3.134-1.388-.71-.331-1.077-.515-1.067-.538s.398.121 1.124.412c.732.273 1.778.765 3.176 1.263 2.767 1.075 6.846 2.451 12.006 3.672s11.428 2.178 18.433 2.362c7.001.193 14.732-.469 22.61-2.286 7.863-1.88 15.08-4.723 21.262-8.011 6.19-3.283 11.385-6.925 15.456-10.317 4.079-3.39 7.12-6.438 9.117-8.631 1.034-1.068 1.75-1.975 2.284-2.545.523-.584.806-.883.824-.87m20.047-58.495c-.024.005-.116-.365-.27-1.071l-.64-3.102-2.231-11.426-7.098-37.744-1.012-5.462c-.297-1.802-.749-3.562-.929-5.334-.467-3.528-.595-6.976-.375-10.239s.731-6.337 1.403-9.164c.739-2.81 1.588-5.387 2.573-7.652 1.923-4.557 4.151-7.917 5.823-10.1.793-1.128 1.547-1.896 2-2.461.47-.552.737-.823.756-.806s-.215.316-.65.896c-.415.591-1.131 1.384-1.889 2.531a48.827 48.827 0 0 0-5.586 10.13c-.948 2.255-1.76 4.814-2.468 7.6-.64 2.8-1.123 5.84-1.323 9.063s-.06 6.63.41 10.11c.182 1.75.631 3.488.933 5.289l1.014 5.463 6.902 37.789 2.012 11.468.513 3.124c.11.716.156 1.093.132 1.099m-163.332-2.611c-.047.01-.217-.687-.487-1.953l-1.069-5.375-3.27-17.78a1406.16 1406.16 0 0 1-3.073-17.817l-.853-5.414c-.185-1.28-.265-1.992-.219-2s.218.688.486 1.955l1.07 5.375 3.271 17.781a1364.551 1364.551 0 0 1 3.07 17.813l.854 5.412c.185 1.282.267 1.995.22 2.003" class="B"/><path d="M490.01 320.012c-.185-.052.634-3.456 1.83-7.599l2.499-7.408c.182.052-.636 3.455-1.831 7.6l-2.499 7.407m7.801 26.744c-.106.161-2.709-1.355-5.814-3.384s-5.539-3.803-5.433-3.964 2.706 1.353 5.813 3.384 5.537 3.803 5.433 3.964m14.719-10.332c-.18.003-.339-3.124.161-6.94.49-3.817 1.438-6.799 1.612-6.75.196.049-.441 3.073-.922 6.84l-.851 6.85m2.948 25.891c-.192.052-1.076-2.788-2.352-6.218l-2.27-6.249c.165-.084 1.64 2.536 2.92 6.008 1.291 3.467 1.88 6.416 1.702 6.459m-11.411 15.981c-.13.141-2.48-1.796-5.248-4.328l-4.777-4.841c.13-.143 2.479 1.797 5.247 4.329s4.906 4.699 4.778 4.84m34.948-18.626c.15.143-1.956 2.471-4.056 5.693l-3.606 5.988c-.167-.058.862-3.092 3.025-6.37 2.145-3.286 4.517-5.441 4.637-5.31m-38.109-65.661c-.13.142-1.881-1.231-3.91-3.069s-3.575-3.442-3.446-3.584 1.879 1.232 3.91 3.068 3.574 3.444 3.446 3.586m-42.992 1.034c.099.166-2.14 1.666-4.997 3.352s-5.254 2.92-5.351 2.755 2.14-1.665 4.999-3.352 5.252-2.92 5.349-2.755m-7.517 37.638c-.156.11-1.816-1.96-3.704-4.624s-3.292-4.915-3.136-5.027 1.813 1.959 3.702 4.624 3.294 4.916 3.138 5.027m16.277 12.25c.165.075-.948 2.798-2.97 5.794-2.009 3.005-4.109 5.065-4.24 4.94-.15-.134 1.687-2.371 3.666-5.327l3.544-5.407m-39.556 2.766c-.195.065-1.304-2.916-3.156-6.35l-3.545-6.142c.136-.115 2.285 2.308 4.157 5.814 1.887 3.498 2.716 6.628 2.544 6.678m8.257 25.605c-.17-.088 1.103-2.897 2.844-6.275s3.291-6.046 3.462-5.958-1.103 2.897-2.844 6.276l-3.462 5.957m27.612 19.188c-.186.036-.938-3.213-1.676-7.253l-.993-7.382c.19-.034.939 3.214 1.677 7.256l.992 7.379m-50.155-14.055c-.149.132-2.194-1.98-4.809-4.476l-4.685-4.61c.115-.146 2.528 1.578 5.165 4.108 2.64 2.522 4.47 4.858 4.33 4.978m-22.215-37.074c.127.142-2 2.257-4.753 4.722s-5.088 4.347-5.216 4.204 1.998-2.256 4.753-4.722 5.088-4.348 5.216-4.204m-8.771-10.8c-.161.104-1.902-2.307-3.889-5.386s-3.468-5.66-3.307-5.762 1.903 2.306 3.89 5.385 3.468 5.659 3.306 5.763m-33.862 18.61c-.158.11-2.323-2.762-4.835-6.414l-4.263-6.808c.159-.11 2.323 2.762 4.835 6.416l4.263 6.806m9.982 22.262c-.002.201-4.37.266-9.742.54l-9.75.438c-.009-.094 1.067-.308 2.823-.536a91.302 91.302 0 0 1 6.892-.596 90.782 90.782 0 0 1 6.916-.094c1.77.05 2.863.156 2.861.248m2.467-64.55c.195.054-.568 3.352-1.257 7.459l-1.27 7.456c-.182-.01-.122-3.427.586-7.572.697-4.147 1.765-7.393 1.941-7.343m-13.502-19.56c-.149-.122 2.12-3.15 5.066-6.765l5.604-6.327c.148.122-2.12 3.15-5.067 6.766l-5.604 6.326m-13.539 18.24c-.149.139-3.305-3.06-7.457-6.714-4.142-3.668-7.709-6.403-7.589-6.567.053-.075 1.017.515 2.497 1.581s3.463 2.622 5.552 4.464 3.876 3.619 5.118 4.955 1.946 2.219 1.878 2.281m-22.554 6.352c.098.188-3.87 2.296-8.252 5.635-4.404 3.317-7.508 6.563-7.662 6.416-.065-.06.628-.95 1.896-2.264s3.126-3.021 5.346-4.705a47.57 47.57 0 0 1 5.978-3.87c1.606-.865 2.654-1.29 2.694-1.212M280.59 330.64c-.2-.01-.171-3.625-.345-8.072-.161-4.448-.462-8.05-.265-8.075.183-.024.796 3.566.96 8.048.175 4.483-.167 8.108-.35 8.099m22.305 19.723c-.126.145-2.903-2.038-6.203-4.875s-5.875-5.255-5.75-5.399 2.902 2.036 6.203 4.874 5.875 5.254 5.75 5.4m35.266-28.27c.042.188-3.401 1.102-7.688 2.04s-7.796 1.547-7.838 1.359 3.401-1.099 7.689-2.037 7.797-1.548 7.837-1.362m69.155 9.157c-.139.13-1.548-1.126-3.145-2.809s-2.782-3.153-2.644-3.286 1.549 1.125 3.146 2.809 2.782 3.152 2.643 3.285m31.034-18.017c.126.143-1.68 1.964-4.034 4.067s-4.37 3.69-4.497 3.549 1.678-1.964 4.034-4.068 4.368-3.69 4.496-3.548m26.531 7.352c-.193-.059.588-3.076 1.256-6.847.683-3.77.996-6.87 1.197-6.86.182.007.178 3.162-.513 6.983-.677 3.819-1.768 6.78-1.94 6.724M328.55 363.47c-.17.087-1.069-1.337-2.007-3.18s-1.56-3.411-1.39-3.498 1.071 1.339 2.01 3.183 1.56 3.409 1.388 3.496m47.781 1.864c-.18.065-1.056-1.911-1.957-4.412s-1.484-4.584-1.303-4.65 1.056 1.911 1.956 4.414 1.485 4.582 1.304 4.648m26.048-13.122c-.144-.125.632-1.245 1.732-2.502s2.11-2.172 2.252-2.046-.63 1.248-1.73 2.504-2.11 2.171-2.254 2.044m-53.528 83.511c-.156.09-1.776-2.528-2.992-6.108-1.23-3.575-1.555-6.636-1.376-6.66.201-.035.823 2.925 2.033 6.436 1.194 3.515 2.515 6.236 2.335 6.332m20.336 1.519c-.18-.063.555-2.64 1.643-5.755s2.116-5.587 2.297-5.524-.553 2.639-1.643 5.753-2.116 5.59-2.297 5.526m-5.944 23.117c-.17.088-1.621-2.353-3.243-5.453s-2.798-5.687-2.629-5.775 1.623 2.35 3.244 5.453 2.797 5.684 2.628 5.775m37.673-6.65c-.049.177-3.081-.553-6.636-1.997-3.558-1.435-6.245-3.02-6.157-3.182.092-.176 2.895 1.117 6.417 2.54 3.52 1.429 6.434 2.448 6.376 2.638m-12.184-13.708c-.102-.176 2.26-1.701 4.935-3.885 2.687-2.172 4.664-4.172 4.813-4.035.139.116-1.64 2.362-4.374 4.574-2.726 2.222-5.288 3.505-5.374 3.346m31.377 9.749c-.115.167-2.534-1.384-5.72-2.882-3.18-1.516-5.913-2.404-5.857-2.601.043-.175 2.908.428 6.154 1.973 3.25 1.53 5.533 3.365 5.424 3.51m6.701 12.49c-.137-.15 1.696-2.021 3.7-4.535 2.013-2.506 3.437-4.706 3.612-4.605.159.087-1.019 2.483-3.07 5.039-2.042 2.562-4.123 4.237-4.242 4.1m-68.467 24.258c-.106.159-2.933-1.533-6.313-3.781s-6.036-4.199-5.93-4.357 2.933 1.531 6.314 3.78 6.036 4.198 5.93 4.358m25.51-6.293c.079.192-2.69 1.403-5.783 3.43-3.108 2.006-5.337 4.043-5.481 3.894-.13-.119 1.925-2.424 5.101-4.477 3.166-2.07 6.107-3.015 6.163-2.847m22.807 10.091c-.162.104-1.446-1.59-2.867-3.782s-2.444-4.054-2.284-4.158 1.444 1.588 2.867 3.78 2.444 4.054 2.284 4.16m27.494-9.093c.082.188-2.501 1.417-5.442 3.323-2.952 1.894-5.138 3.736-5.274 3.586-.126-.128 1.886-2.238 4.898-4.17 3.002-1.944 5.754-2.905 5.818-2.739m12.706-11.929c-.182.095-.975-1.295-2.462-2.498-1.469-1.227-2.984-1.738-2.926-1.935.02-.179 1.757.061 3.368 1.399 1.622 1.322 2.192 2.981 2.02 3.034m14.398 13.732c.09.17-1.954 1.4-4.562 2.747s-4.792 2.299-4.88 2.128 1.954-1.399 4.562-2.745 4.792-2.3 4.88-2.13m12.972 7.232c-.196-.054.536-3.059 1.011-6.823.495-3.765.547-6.855.75-6.86.18-.01.44 3.122-.06 6.948-.485 3.827-1.529 6.792-1.7 6.735m-2.047-23.101c-.12.175-2.811-1.653-6.508-3.1-3.688-1.472-6.9-1.979-6.868-2.187.005-.172 3.337.033 7.122 1.543 3.795 1.485 6.366 3.613 6.254 3.744m-28.915-69.797c-.105.16-2.712-1.348-5.823-3.368s-5.548-3.79-5.444-3.951 2.711 1.348 5.823 3.368 5.548 3.79 5.444 3.95" class="F"/><path d="M395.755 476.019a89.514 89.514 0 0 1-2.347-.034c-6.855-.18-13.007-1.096-18.099-2.284-.466-1.472.19-3.25 1.374-4.32 1.382-1.249 3.285-1.733 5.128-2.021 2.721-.425 5.497-.517 8.281-.517l3.237.028 3.232.026c4.81 0 9.543-.278 13.964-2.083 6.002-2.449 10.622-7.451 14.196-12.86s6.296-11.34 9.782-16.806c3.128-4.908 7.114-9.615 12.542-11.713a14.535 14.535 0 0 1 5.211-.954c4.121 0 8.2 1.712 10.256 5.219 2.87 4.897.972 11.196-1.788 16.159-2.987 5.368-6.896 10.135-11.443 14.237a92.199 92.199 0 0 1-12.001 7.592c-6.183 3.288-13.399 6.13-21.261 8.01a90.72 90.72 0 0 1-20.264 2.32m38.356-22.92c-.226 0-1.63 2.155-3.599 4.607-2.004 2.514-3.837 4.385-3.7 4.535.005.005.012.008.023.008.254 0 2.254-1.646 4.218-4.11 2.052-2.555 3.23-4.951 3.071-5.038l-.013-.003m-18.171 21.33c.079-.016.159-.035.239-.054 7.925-1.893 15.192-4.78 21.401-8.12a92.675 92.675 0 0 0 5.013-2.897c-5.818 3.984-12.305 7.058-19.034 9.132a79.837 79.837 0 0 1-7.619 1.94m-40.295-.01a4.64 4.64 0 0 1-.088-.146l.318.075-.23.07" fill="#4b26b1"/><path d="M397.15 476.247c-7.093 0-14.209-.706-21.187-1.927l-.088.027-.318-.075a3.133 3.133 0 0 1-.248-.57c5.092 1.187 11.244 2.103 18.099 2.283l2.347.034a90.72 90.72 0 0 0 20.264-2.32c7.862-1.88 15.078-4.723 21.261-8.011a92.199 92.199 0 0 0 12.001-7.592 63.608 63.608 0 0 1-6.688 5.26 92.675 92.675 0 0 1-5.013 2.897c-6.21 3.34-13.476 6.227-21.401 8.12l-.239.055c-6.167 1.257-12.47 1.819-18.79 1.819" fill="#161c1e"/><path d="M426.835 462.248c-.011 0-.018-.003-.023-.008-.137-.15 1.696-2.021 3.7-4.535l3.599-4.608.013.003c.159.087-1.019 2.483-3.07 5.039-1.965 2.463-3.965 4.109-4.22 4.109" fill="#afaead"/><path d="M564.71 433.175l-14.871-53.088-61.25 7.926 7.164 28.155-91.604-24.447-20.292 26.831 139.076 65.67a34.055 34.055 0 0037.99-7.82c8.596-9.007 7.566-31.365 3.788-43.227" class="H"/><path d="M311.525 382.341c-2.05-.545-4.524-.993-6.053.479-1.33 1.283-1.232 3.541-.284 5.127s1.664 1.824 4.163 2.636l24.389 5.524 9.379-7.299-31.594-6.467" class="E"/><g class="H"><path d="M387.645 419.83c-29.792-7.29-57.446-16.934-86.885-22.526-1.476-.28-3.127-.677-3.9-1.965-1.052-1.754.31-4.148 2.192-4.947s4.027-.485 6.052-.201a138.279 138.279 0 0 0 47.339-1.6c10.086-2.111 19.956-5.358 30.188-6.598s12.929 4.036 21.518 9.728"/><path d="M404.15 391.721c-4.837-8.725-14.771-14.365-24.742-14.046-6.099.194-11.917 2.41-17.804 4.01s-12.301 2.568-17.976.335c-2.172-.856-4.207-2.17-6.517-2.493s-5.099.81-5.518 3.106c-.316 1.736.811 3.392 2.022 4.674 4.268 4.51 17.852 9.53 28.553 8.993"/></g><path d="M362.168 396.3c-.003-.103-1.633-.016-4.548-.292-2.908-.293-7.115-.993-12.067-2.677-2.466-.85-5.128-1.943-7.765-3.474-1.308-.766-2.643-1.641-3.739-2.77-1.082-1.12-2.128-2.556-2.02-4.074.09-1.526 1.595-2.657 3.231-2.938 1.652-.344 3.387.256 5.072 1.02 1.676.784 3.48 1.692 5.445 2.146 1.954.467 3.992.666 6.034.596 8.248-.29 15.362-3.71 22.102-5.008 3.37-.685 6.647-.929 9.663-.497a28.01 28.01 0 0 1 8.112 2.348 28.45 28.45 0 0 1 9.732 7.404c1.877 2.239 2.633 3.696 2.73 3.637.031-.017-.149-.382-.52-1.066-.363-.687-.985-1.662-1.894-2.828-1.804-2.323-4.921-5.468-9.73-7.814a28.28 28.28 0 0 0-8.315-2.538c-3.112-.487-6.526-.266-9.966.41-6.9 1.292-13.996 4.646-21.941 4.908a21.78 21.78 0 0 1-5.759-.561c-1.858-.427-3.525-1.26-5.274-2.07-1.716-.771-3.698-1.482-5.678-1.069-.961.191-1.896.579-2.652 1.236a3.81 3.81 0 0 0-1.35 2.611c-.091 2.061 1.18 3.597 2.32 4.785 1.217 1.228 2.605 2.103 3.964 2.882 2.733 1.541 5.448 2.606 7.965 3.425 5.048 1.616 9.321 2.21 12.268 2.383 1.477.066 2.625.077 3.4.01.777-.048 1.183-.09 1.18-.125m160.865 28.336c-.004.01-.109-.023-.305-.09l-.861-.307-3.152-1.15a271.976 271.976 0 0 0-10.494-3.522 259.676 259.676 0 0 0-10.632-3.086l-4.132-1.065c-.202-.055-.308-.09-.305-.099s.11.007.316.044l.896.176c.776.164 1.896.418 3.273.755 2.755.681 6.536 1.713 10.667 3.01 4.13 1.29 7.828 2.597 10.479 3.602l3.125 1.235.839.354c.192.086.29.135.286.143" class="E"/><path d="M407.941 315.13c17.439-.758 31.187-15.115 31.187-32.57v-38.65l2.127-123.577-2.764-6.948-65.068-20.536c-20.011-1.558-33.434 25.94-34.143 45.998-.788 22.286-.87 49.526 2.223 66.052 6.22 33.232 31.92 36.774 31.92 36.774l.506 41.286c.226 18.401 15.627 32.968 34.012 32.17" class="H"/><path d="M347.877 160.519c-.017 2.264 1.884 4.144 4.248 4.205 2.358.061 4.287-1.717 4.304-3.981s-1.882-4.146-4.241-4.207-4.293 1.721-4.31 3.983m-2.302-7.889c.545.543 3.723-1.946 8.33-2.06 4.598-.18 8.045 2.094 8.529 1.517.238-.256-.33-1.25-1.832-2.28-1.478-1.027-3.978-1.998-6.848-1.907-2.868.096-5.252 1.219-6.61 2.339-1.386 1.125-1.84 2.148-1.569 2.39m47.005 7.89c-.017 2.262 1.884 4.144 4.247 4.205s4.29-1.717 4.305-3.981-1.884-4.146-4.241-4.207c-2.364-.063-4.293 1.72-4.31 3.983m-1.705-8.279c.547.544 3.728-1.945 8.331-2.06 4.599-.18 8.045 2.096 8.53 1.517.237-.256-.326-1.248-1.831-2.28-1.479-1.028-3.979-1.996-6.847-1.905s-5.255 1.219-6.612 2.337c-1.383 1.126-1.837 2.15-1.57 2.391m-15.775 34.623c.014-.263-2.864-.678-7.52-1.144-1.179-.088-2.299-.292-2.519-1.09-.301-.842.156-2.122.688-3.508l3.232-9.052c4.48-12.886 7.687-23.468 7.167-23.644s-4.575 10.126-9.054 23.012l-3.082 9.102c-.41 1.349-1.132 2.886-.484 4.633.341.87 1.222 1.484 1.982 1.667.76.209 1.422.204 2.006.222 4.674.123 7.573.064 7.584-.198" class="B"/><path d="M373.423 241.46s22.496.828 44.373-13.157c0 0-10.213 23.228-43.705 21.025l-.668-7.868" class="E"/><g class="B"><path d="M389.19 134.221c.489 1.24 5.071.519 10.494 1.022 5.432.394 9.835 1.856 10.519.712.306-.546-.487-1.703-2.282-2.868-1.78-1.162-4.598-2.235-7.852-2.507-3.254-.265-6.212.332-8.157 1.187-1.961.853-2.933 1.865-2.723 2.454m-42.288 5.031c.84 1.023 3.982-.15 7.796-.305 3.81-.291 7.067.506 7.78-.607.312-.541-.226-1.575-1.665-2.525-1.419-.95-3.768-1.692-6.388-1.54s-4.865 1.166-6.163 2.274c-1.318 1.112-1.733 2.202-1.36 2.703"/><path d="M361.96 95.123c2.863 20.854 17.116 39.785 36.365 48.301l-1.704-7.961c8.238 13.624 25.734 25.042 36.994 29.648 3.48 1.422 7.922.146 11.09-1.876 4.428-2.828 4.687-9.172 3.763-14.344-2.892-16.19-12.503-30.722-25.003-41.406s-27.757-17.76-43.493-22.541c-4.172-1.267-6.46-2.143-10.59-.741s-9.55 6.108-7.549 9.981"/><path d="M428.332 140.55c9.547 34.203-3.085 72.21.17 107.57.726 7.892 3.593 17.012 10.233 21.341 3.27 2.132 3.941.786 7.776 1.528 9.626 1.866 18.737-2.165 28.365-.3 8.693 1.684 22.519 6.687 27.94-.313 5.321-6.87-.828-15.167-6.195-22.003s-12.557-12.666-15.204-20.944c-2.842-8.896.23-18.44 1.566-27.684 4.566-31.59-6.692-63.596-25.35-89.493-6.508-9.035-16.314-17.573-25.137-24.368s-28.793-12.505-39.915-11.95-29.641 9.294-34.169 21.807"/></g><path d="M391.407 121.035c-.058.114.668.609 2.076 1.428l2.522 1.466-2.138-2.052c-2.739-2.629-8.652-8.416-13.243-16.681-6.632-11.488-7.681-22.479-8.21-22.352-.182.017-.173 2.755.703 7.079.864 4.313 2.75 10.198 6.103 16.068 4.721 8.497 11.087 14.193 14.193 16.426l.386-.585c-1.504-.63-2.336-.91-2.392-.797m60.517 142.292c.056-.004.065-.764.032-2.204-.056-1.436-.047-3.56.067-6.284.212-5.455 1.194-13.308 3.385-22.834 2.056-9.552 5.459-20.732 7.501-33.613.902-6.441 1.499-13.305.972-20.415-.481-7.077-1.996-14.488-5.452-21.285-3.301-6.903-8.694-12.385-14.4-16.587-5.72-4.253-11.706-7.542-17.18-10.952a138.963 138.963 0 0 1-26.648-21.357c-6.792-7.005-11.565-13.339-14.713-17.797l-3.527-5.214c-.793-1.202-1.233-1.821-1.281-1.793s.297.703 1.004 1.961c.69 1.27 1.801 3.087 3.284 5.398 3.003 4.588 7.665 11.069 14.41 18.234 6.74 7.15 15.638 14.926 26.685 21.828 5.489 3.467 11.434 6.775 17.02 10.958 5.581 4.144 10.718 9.393 13.905 16.046 3.332 6.55 4.825 13.744 5.316 20.671.54 6.955-.015 13.723-.865 20.09-1.934 12.726-5.223 23.967-7.147 33.586-2.057 9.6-2.879 17.559-2.896 23.056-.017 2.75.073 4.883.235 6.321.14 1.44.238 2.191.293 2.186" class="C"/><path d="M339.27 111.02a229.499 229.499 0 0 0-2.091 26.012c6.754-5.437 13.564-11 18.638-18.03s8.306-15.814 6.962-24.38c-9.786 2.731-17.772 11.107-20.036 21.01" class="B"/><path d="M373.65 202.483c1.14-2.232 1.455-2.816 3.405-3.871.717-.388 3.697-.507 4.513-.463 1.477.08 2.468 1.546 3.008 2.923.788 2.008 1.135 4.297.361 6.31s-7.75 4.422-11.514-.865" class="E"/><path d="M379.397 210.024c.01-.056.419-.001 1.144-.043.711-.054 1.798-.222 2.799-1 1.008-.738 1.699-2.213 2.019-3.85.25-1.615-.172-3.63-1.643-4.859-1.447-1.236-3.423-1.68-5.067-1.663-1.67.028-3.028.948-3.825 1.91-.796.99-1.06 2.048-1.192 2.754-.133.719-.147 1.132-.21 1.131-.033.001-.113-.41-.06-1.165.057-.74.25-1.884 1.074-3.022.408-.562.993-1.082 1.683-1.498a5.292 5.292 0 0 1 2.501-.748c.92-.054 1.879.084 2.824.352s1.919.716 2.728 1.426c.804.704 1.417 1.631 1.663 2.626.266.95.33 1.958.154 2.865s-.5 1.707-.872 2.419c-.385.725-.908 1.321-1.485 1.717-1.164.813-2.344.901-3.087.876-.76-.044-1.156-.19-1.148-.228" class="B"/><path d="M395.247 176.008c.12.144-.318.653-1.087.739s-1.31-.311-1.224-.479c.077-.18.577-.14 1.145-.21.572-.058 1.051-.209 1.166-.05m7.403-.395c-.187.042-.434-.349-.551-.874s-.059-.983.129-1.024.432.349.55.874.058.983-.129 1.024m8.863-2.953c-.043.187-.501.244-1.027.127s-.914-.362-.873-.55.5-.244 1.024-.128.916.363.876.551m-12.449 10.76c-.192 0-.348-.425-.348-.95s.156-.949.348-.949.346.426.346.95-.156.949-.346.949m8.017-3.587c-.192 0-.347-.094-.347-.21s.155-.211.347-.211.347.095.347.21-.155.211-.347.211m-57.39-2.532c0 .187-.667.318-1.393-.014s-1.069-.916-.928-1.04c.143-.136.623.145 1.215.408.588.272 1.115.45 1.105.646m5.958-1.253c-.186-.045-.291-.272-.235-.505s.256-.386.443-.34.289.27.233.504-.253.386-.441.341m-3.18 8.633c-.19.026-.39-.284-.446-.692s.055-.76.246-.785.388.283.444.692-.054.76-.244.785m-7.84-.417c-.16-.107-.102-.476.132-.825s.552-.547.71-.44.102.476-.132.825-.55.547-.71.44" class="E"/><path d="M314.732 482.701v61.868A32.633 32.633 0 01282.1 577.2h-82.701c-6.19 0-12.25-1.76-17.476-5.074l-2.819-1.786a32.63 32.63 0 01-15.155-27.558v-60.08h150.783" class="B"/><path d="M163.95 497.597h-41.927v7.278l24.197 3.722c7.163 1.103 13.567 5.572 16.417 12.236.799 1.867 1.312 3.892 1.312 6.018 0 0 8.53-.144 9.986-10.332l.084-.61c1.018-7.552-2.998-14.873-9.851-18.204l-.219-.108m150.786.055h41.925v7.277l-24.196 3.723c-7.164 1.103-13.567 5.572-16.419 12.236-.798 1.867-1.31 3.892-1.31 6.016 0 0-8.531-.144-9.986-10.33l-.084-.611c-1.018-7.552 2.996-14.874 9.851-18.204l.219-.107" class="C"/><path d="M314.735 497.652c.002.017-.207.133-.614.374-.414.227-1.017.578-1.761 1.1a17.834 17.834 0 0 0-5.248 5.714c-1.673 2.872-2.899 6.997-2.12 11.61.323 2.286 1.121 4.698 2.785 6.657a10.2 10.2 0 0 0 6.963 3.487l-.316.31c-.005-2.385.637-4.832 1.767-7.09a19.904 19.904 0 0 1 4.717-6.157c1.988-1.779 4.376-3.204 6.984-4.165 2.61-1.032 5.459-1.302 8.228-1.753l20.49-3.138-.282.328.015-7.277.317.319-30.195-.13-8.632-.088-2.298-.049c-.523-.017-.796-.035-.8-.052s.261-.035.777-.05l2.279-.05 8.613-.09 30.573-.129v.319l.015 7.561-.281.044-20.486 3.168c-2.802.455-5.577.718-8.093 1.714-2.53.929-4.85 2.308-6.777 4.024-3.847 3.41-6.278 8.178-6.31 12.741l-.002.333-.314-.024a10.75 10.75 0 0 1-7.388-3.736c-1.745-2.085-2.546-4.609-2.858-6.954-.754-4.735.556-8.971 2.312-11.871 1.774-2.947 3.932-4.697 5.456-5.688.77-.501 1.393-.827 1.825-1.027.421-.212.657-.302.659-.285" class="B"/><path d="M312.036 484.352c.005.01-.11.077-.344.199l-1.04.526-4.03 1.96-2.923 1.402-3.564 1.465-8.791 3.32-5.188 1.724-5.713 1.578c-3.934 1.16-8.243 1.954-12.755 2.882-9.077 1.57-19.179 2.641-29.819 2.699-10.645-.052-20.749-1.12-29.828-2.684-4.513-.928-8.822-1.718-12.757-2.876-1.973-.55-3.905-.99-5.713-1.575l-5.191-1.723c-3.335-1.016-6.216-2.31-8.79-3.317l-3.567-1.461-2.922-1.4-4.032-1.96-1.04-.523c-.232-.123-.349-.19-.342-.201s.132.037.374.137l1.071.461 4.081 1.839 2.942 1.342c1.088.465 2.297.9 3.58 1.407 2.582.971 5.468 2.228 8.802 3.211l5.187 1.675c1.807.57 3.736.996 5.705 1.53 3.927 1.131 8.226 1.896 12.726 2.805 9.049 1.522 19.113 2.567 29.714 2.62 10.596-.058 20.658-1.107 29.706-2.636 4.498-.907 8.796-1.677 12.722-2.807 1.97-.538 3.898-.963 5.704-1.536l5.187-1.675c3.333-.987 6.219-2.244 8.801-3.217l3.579-1.407 2.941-1.344 4.082-1.841 1.07-.463c.243-.101.37-.147.375-.136m.096 5.128c.005.01-.11.077-.343.2l-1.041.525-4.03 1.96-2.922 1.403-3.565 1.464-8.791 3.32-5.19 1.724-5.711 1.577c-3.935 1.161-8.243 1.954-12.755 2.883-9.076 1.568-19.179 2.641-29.819 2.7-10.645-.053-20.749-1.122-29.828-2.687-4.513-.925-8.822-1.716-12.757-2.874-1.973-.548-3.905-.99-5.715-1.576l-5.189-1.723c-3.335-1.015-6.216-2.308-8.79-3.316l-3.567-1.461-2.923-1.4-4.03-1.96-1.04-.524c-.234-.121-.35-.189-.345-.2s.134.036.376.136l1.07.462 4.082 1.839 2.942 1.343c1.086.464 2.297.9 3.58 1.406 2.582.971 5.468 2.227 8.802 3.21l5.187 1.676c1.807.569 3.736.996 5.705 1.53 3.927 1.13 8.226 1.898 12.724 2.804 9.051 1.523 19.115 2.567 29.716 2.619 10.598-.057 20.658-1.107 29.706-2.633 4.498-.91 8.796-1.678 12.722-2.81 1.968-.536 3.898-.961 5.704-1.534l5.186-1.676c3.334-.986 6.218-2.243 8.801-3.215l3.58-1.41 2.941-1.342a3251.8 3251.8 0 0 1 4.082-1.84l1.069-.464c.244-.101.37-.147.376-.136" class="C"/><g class="G"><path d="M283.693 579.116c11.002-1.712 16.65-7.715 19.852-18.377.998-3.319 1.432-6.955.254-10.214s-4.296-5.984-7.759-5.847c-4.19.166-7.172 4.127-8.883 7.957s-2.976 8.145-6.265 10.746-9.475 1.821-10.172-2.316c-.183-1.085.041-2.24-.344-3.271-.937-2.509-4.915-2.38-6.643-.334s-1.81 4.976-1.732 7.653.174 5.562-1.321 7.784c-2.233 3.317-6.888 3.69-10.888 3.727l-23.627.225s4.071 1.958 14.588 1.958l42.94.309"/><path d="M237.993 576.85c-7.902.133-16.284.142-23.041-3.956-4.267-2.588-7.839-6.78-12.773-7.531-1.41-.215-2.943-.1-4.114.717s-1.825 2.46-1.194 3.74c-2.18-.827-3.851-2.579-5.727-3.963s-4.323-2.446-6.501-1.616c-2.314.884-3.436 3.767-2.842 6.17s2.559 4.282 4.779 5.377 4.7 1.524 7.14 1.94l56.887 1.079c0-1.582-12.614-1.956-12.614-1.956"/></g><path d="M193.597 580.854l.123-3.126 89.973 1.388v1.738h-90.096" class="C"/><path d="M277.947 544.566c-2.162-3.53-2.354-8.188-.49-11.884.814-1.614 2.487-3.21 4.202-2.638 1.637.548 2.076 2.648 2.032 4.373-.094 3.724-2.779 11.239-5.744 10.15" class="G"/><path d="M225.321 432.923c.08.012-.081.646-.02 1.792.047 1.149.468 2.766 1.268 4.669.762 1.913 1.996 4.115 2.524 6.907.607 2.83-.46 6.018-2.166 8.698l-5.075 7.352c-.681 1.17-1.192 2.351-1.501 3.504-.288 1.144-.358 2.27-.235 3.274.217 2.028 1.107 3.506 1.903 4.302.817.794 1.44 1.028 1.405 1.092-.01.023-.163-.029-.45-.15s-.685-.36-1.14-.746c-.897-.772-1.913-2.305-2.205-4.437-.16-1.056-.12-2.247.163-3.476.3-1.22.817-2.464 1.504-3.679 1.352-2.452 3.383-4.745 5.039-7.4 1.665-2.629 2.658-5.58 2.128-8.23-.462-2.644-1.634-4.872-2.35-6.83-.754-1.952-1.12-3.654-1.081-4.844.02-.592.067-1.045.153-1.348.066-.301.112-.456.136-.45m13.964-1.173c.08.013-.082.647-.02 1.793.046 1.148.468 2.766 1.268 4.669.763 1.913 1.995 4.115 2.524 6.905.606 2.832-.458 6.02-2.168 8.7l-5.073 7.352c-.681 1.17-1.193 2.351-1.503 3.503-.286 1.145-.354 2.27-.233 3.275.217 2.028 1.107 3.506 1.903 4.302.817.792 1.438 1.027 1.405 1.092-.01.023-.163-.028-.45-.15s-.685-.36-1.14-.746c-.897-.772-1.914-2.305-2.205-4.437-.16-1.056-.12-2.247.163-3.477.3-1.218.817-2.463 1.504-3.678 1.352-2.452 3.383-4.745 5.039-7.4 1.665-2.63 2.658-5.58 2.128-8.23-.462-2.644-1.634-4.872-2.351-6.83-.753-1.953-1.119-3.656-1.081-4.844.022-.592.068-1.046.154-1.346.066-.303.112-.458.136-.452m13.965-1.172c.08.013-.083.646-.02 1.792.045 1.148.467 2.766 1.267 4.668.762 1.914 1.996 4.116 2.524 6.906.607 2.831-.458 6.02-2.166 8.702l-5.075 7.35c-.681 1.17-1.193 2.351-1.503 3.503-.286 1.147-.356 2.27-.233 3.273.217 2.03 1.107 3.508 1.903 4.304.817.794 1.438 1.027 1.405 1.092-.01.023-.163-.03-.45-.15s-.685-.362-1.14-.746c-.897-.772-1.913-2.305-2.205-4.437-.16-1.056-.12-2.246.163-3.477.3-1.218.817-2.463 1.503-3.679 1.353-2.45 3.384-4.745 5.04-7.399 1.665-2.63 2.658-5.578 2.128-8.23-.462-2.644-1.634-4.874-2.35-6.83-.754-1.953-1.12-3.656-1.081-4.844.021-.592.067-1.046.152-1.346.068-.304.113-.458.137-.452" class="B"/><path d="M58.636 581.344s-17.974-87.8 0-136.588h19.9s15.274 51.45 0 136.588h-19.9" class="G"/><path d="M78.537 581.344h-19.9s-7.985-39.003-7.99-79.462c-.001-20.246 1.995-40.856 7.99-57.126h19.9s6.785 22.856 6.788 63.308c.002 20.241-1.694 44.887-6.788 73.28" fill="#fabdcf"/><path d="M73.326 399.181c6.456-11.36 19.278-18.808 32.345-18.788-5.96 12.428-19.818 20.606-33.579 19.811m6.181-37.621c-9.145-9.334-12.778-23.71-9.165-36.267 10.31 9.15 14.358 24.721 9.81 37.732m-18.611-.953c-10.84-4.304-18.915-14.594-20.367-25.956 11.735 3.748 20.574 14.854 21.417 26.909M55.38 324.11c-1.876-8.295.99-17.391 7.23-22.946 2.577 8.605-.466 18.499-7.373 23.97m14 108.316c.787-8.467 6.33-16.227 13.982-19.577-.215 8.982-6.172 17.444-14.435 20.508" class="C"/><path d="M47.508 287.368s3.594 13.447 7.795 35.54l1.6 8.679 1.546 9.44c1.113 6.517 2.014 13.524 3.021 20.889 1.83 14.753 3.42 31.028 4.393 48.16.903 17.14 1.1 33.496.891 48.361l-.722 21.099-.507 9.553-.643 8.8c-1.764 22.422-3.868 36.176-3.868 36.176s.002-.218.039-.64l.184-1.874.776-7.195.576-5.197.563-6.195 1.24-15.11.599-8.8c.2-3.058.3-6.246.466-9.546.369-6.596.478-13.655.658-21.08.173-14.853-.043-31.19-.945-48.315-.973-17.113-2.54-33.373-4.334-48.117l-2.956-20.88-1.505-9.439-1.555-8.68c-.937-5.54-2.018-10.506-2.883-14.885l-1.236-6.096-1.14-5.104-1.557-7.068-.388-1.844c-.083-.415-.108-.632-.108-.632m44.197 32.002c.011.005-.03.166-.122.473l-.423 1.36-1.687 5.205-1.236 3.753-1.356 4.503c-.952 3.237-2.128 6.895-3.186 11.01l-1.74 6.433c-.598 2.238-1.12 4.594-1.716 7.017-1.23 4.84-2.28 10.072-3.444 15.561-2.156 11.018-4.146 23.204-5.599 36.078-1.385 12.885-2.097 25.218-2.391 36.44l-.026 15.941.147 7.222.297 6.66c.137 4.243.488 8.07.713 11.437l.344 4.688.388 3.934.515 5.447.115 1.419c.023.32.029.484.017.485s-.041-.16-.086-.477l-.186-1.41-.644-5.437-.448-3.93-.402-4.688c-.262-3.366-.648-7.195-.816-11.445l-.342-6.664c-.112-2.317-.121-4.733-.189-7.232-.172-4.998-.079-10.34-.037-15.962.26-11.242.953-23.596 2.341-36.503 1.455-12.896 3.468-25.101 5.661-36.13 1.184-5.494 2.255-10.729 3.512-15.57l1.757-7.016 1.786-6.432c1.089-4.11 2.3-7.761 3.287-10.99l1.414-4.49 1.294-3.739 1.812-5.165.487-1.337c.114-.299.178-.451.189-.448" class="B"/><path d="M88.797 329.295c-4.375-3.675-4.644-10.532-2.492-15.823s6.182-9.55 9.556-14.157 6.24-10.13 5.467-15.788c-.184-1.348-.572-2.715-.283-4.044s1.603-2.574 2.902-2.171c1.15.355 1.611 1.708 1.854 2.887.748 3.644.972 7.394.661 11.101 1.707-4.327 5.52-7.764 10-9.016 1.011 4.321-.393 9.128-3.571 12.225 2.89-1.202 5.992-2.429 9.065-1.834s5.825 3.857 4.672 6.766c-1.314 3.315-5.833 3.379-9.34 4.012-3.887.703-7.5 2.83-10.002 5.887-3.163 3.867-4.442 8.92-7.006 13.207s-7.498 8.034-12.248 6.489m-36.774-26.851c4.847-3.022 6.076-9.774 4.688-15.314s-4.78-10.324-7.474-15.362-4.756-10.902-3.196-16.397c.37-1.308.947-2.608.847-3.964s-1.226-2.773-2.568-2.557c-1.187.19-1.835 1.465-2.24 2.598a39.037 39.037 0 0 0-2.213 10.899c-1.083-4.524-4.377-8.463-8.635-10.33-1.61 4.137-.894 9.093 1.82 12.606-2.694-1.597-5.592-3.248-8.72-3.09s-6.308 3-5.574 6.045c.835 3.465 5.3 4.162 8.684 5.282a16.942 16.942 0 0 1 9.076 7.232c2.589 4.272 3.146 9.455 5.083 14.06s6.295 9.007 11.216 8.144" class="G"/><path d="M45.55 368.19c.02-.01.19.287.492.865l1.289 2.541a82.457 82.457 0 0 1 1.939 4.073l2.4 5.471 2.667 6.733 2.76 7.843a211.877 211.877 0 0 1 5.024 18.375 211.665 211.665 0 0 1 3.202 18.78l.808 8.277.424 7.23.132 5.973a81.87 81.87 0 0 1-.039 4.51l-.096 2.847-.08.993c-.024-.001-.044-.344-.06-.996l-.034-2.846a104.13 104.13 0 0 0-.079-4.502l-.235-5.957-.507-7.205-.869-8.244a226.276 226.276 0 0 0-3.245-18.711 226.143 226.143 0 0 0-4.954-18.327l-2.691-7.84-2.582-6.746-2.3-5.5a103.677 103.677 0 0 0-1.83-4.115l-1.17-2.596-.367-.925" class="B"/><path d="M48.853 381.036c2.414-1.963 2.62-5.695 1.493-8.595s-3.284-5.253-5.082-7.793-3.31-5.57-2.842-8.645c.112-.732.336-1.472.19-2.199s-.851-1.416-1.562-1.208c-.63.184-.893.917-1.034 1.556a21.269 21.269 0 0 0-.456 6.041c-.893-2.372-2.94-4.276-5.368-4.996-.589 2.343.135 4.974 1.84 6.688-1.565-.681-3.243-1.376-4.922-1.077s-3.206 2.05-2.602 3.645c.686 1.815 3.146 1.89 5.05 2.264a9.23 9.23 0 0 1 5.397 3.292c1.69 2.135 2.343 4.898 3.702 7.254s4.013 4.44 6.614 3.64" class="G"/></svg>